{
  "accessors": [
    {
      "bufferView": 2,
      "componentType": 5126,
      "count": 8967,
      "max": [
        0.5166059732437134,
        1.25,
        0.4066550135612488
      ],
      "min": [
        -0.5166059732437134,
        -1.1902250051498413,
        -0.4066550135612488
      ],
      "type": "VEC3"
    },
    {
      "bufferView": 2,
      "byteOffset": 107604,
      "componentType": 5126,
      "count": 8967,
      "max": [
        1.0,
        1.0,
        1.0
      ],
      "min": [
        -1.0,
        -1.0,
        -1.0
      ],
      "type": "VEC3"
    },
    {
      "bufferView": 1,
      "componentType": 5126,
      "count": 8967,
      "max": [
        0.9984999895095825,
        0.9988999962806702
      ],
      "min": [
        0.503250002861023,
        0.5037500262260437
      ],
      "type": "VEC2"
    },
    {
      "bufferView": 0,
      "componentType": 5125,
      "count": 25629,
      "type": "SCALAR"
    },
    {
      "bufferView": 2,
      "byteOffset": 215208,
      "componentType": 5126,
      "count": 202,
      "max": [
        0.24262499809265137,
        0.06476700305938721,
        0.24435700476169586
      ],
      "min": [
        -0.24620699882507324,
        0.0024659999180585146,
        0.14306800067424774
      ],
      "type": "VEC3"
    },
    {
      "bufferView": 2,
      "byteOffset": 217632,
      "componentType": 5126,
      "count": 202,
      "max": [
        0.9674585461616516,
        0.031307559460401535,
        0.8317534327507019
      ],
      "min": [
        -0.9674586057662964,
        -0.9999585747718811,
        -0.9999732375144958
      ],
      "type": "VEC3"
    },
    {
      "bufferView": 1,
      "byteOffset": 71736,
      "componentType": 5126,
      "count": 202,
      "max": [
        0.8441500067710876,
        0.9856500029563904
      ],
      "min": [
        0.5022000074386597,
        0.5148000121116638
      ],
      "type": "VEC2"
    },
    {
      "bufferView": 0,
      "byteOffset": 102516,
      "componentType": 5125,
      "count": 648,
      "type": "SCALAR"
    },
    {
      "bufferView": 2,
      "byteOffset": 220056,
      "componentType": 5126,
      "count": 1060,
      "max": [
        0.34362098574638367,
        -0.16558599472045898,
        0.14371399581432343
      ],
      "min": [
        -0.367343008518219,
        -0.31244099140167236,
        0.05786700174212456
      ],
      "type": "VEC3"
    },
    {
      "bufferView": 2,
      "byteOffset": 232776,
      "componentType": 5126,
      "count": 1060,
      "max": [
        0.9995240569114685,
        0.9999249577522278,
        0.9967959523200989
      ],
      "min": [
        -0.9983888864517212,
        -0.9886830449104309,
        -0.9975067973136902
      ],
      "type": "VEC3"
    },
    {
      "bufferView": 1,
      "byteOffset": 73352,
      "componentType": 5126,
      "count": 1060,
      "max": [
        0.9794999957084656,
        0.9977999925613403
      ],
      "min": [
        0.5027499794960022,
        0.6333500146865845
      ],
      "type": "VEC2"
    },
    {
      "bufferView": 0,
      "byteOffset": 105108,
      "componentType": 5125,
      "count": 2658,
      "type": "SCALAR"
    },
    {
      "bufferView": 2,
      "byteOffset": 245496,
      "componentType": 5126,
      "count": 4756,
      "max": [
        0.46963098645210266,
        1.2251030206680298,
        0.3980819880962372
      ],
      "min": [
        -0.46963098645210266,
        -1.1689679622650146,
        -0.2762410044670105
      ],
      "type": "VEC3"
    },
    {
      "bufferView": 2,
      "byteOffset": 302568,
      "componentType": 5126,
      "count": 4756,
      "max": [
        1.0,
        1.0,
        1.0
      ],
      "min": [
        -1.0,
        -1.0,
        -1.0
      ],
      "type": "VEC3"
    },
    {
      "bufferView": 1,
      "byteOffset": 81832,
      "componentType": 5126,
      "count": 4756,
      "max": [
        0.9968500137329102,
        0.996150016784668
      ],
      "min": [
        0.503000020980835,
        0.5025500059127808
      ],
      "type": "VEC2"
    },
    {
      "bufferView": 0,
      "byteOffset": 115740,
      "componentType": 5125,
      "count": 10452,
      "type": "SCALAR"
    },
    {
      "bufferView": 2,
      "byteOffset": 359640,
      "componentType": 5126,
      "count": 450,
      "max": [
        0.3844299912452698,
        -0.18343700468540192,
        0.1642650067806244
      ],
      "min": [
        -0.30856600403785706,
        -0.5168399810791016,
        0.11711400002241135
      ],
      "type": "VEC3"
    },
    {
      "bufferView": 2,
      "byteOffset": 365040,
      "componentType": 5126,
      "count": 450,
      "max": [
        0.9977784156799316,
        0.999981701374054,
        0.9999768137931824
      ],
      "min": [
        -0.9966509342193604,
        -0.9999996423721313,
        -0.9999707341194153
      ],
      "type": "VEC3"
    },
    {
      "bufferView": 1,
      "byteOffset": 119880,
      "componentType": 5126,
      "count": 450,
      "max": [
        0.9954000115394592,
        0.5656999945640564
      ],
      "min": [
        0.5029000043869019,
        0.5040000081062317
      ],
      "type": "VEC2"
    },
    {
      "bufferView": 0,
      "byteOffset": 157548,
      "componentType": 5125,
      "count": 1044,
      "type": "SCALAR"
    },
    {
      "bufferView": 2,
      "byteOffset": 370440,
      "componentType": 5126,
      "count": 168,
      "max": [
        0.39910998940467834,
        0.8659219741821289,
        0.3552759885787964
      ],
      "min": [
        -0.41038399934768677,
        -0.4740929901599884,
        0.09908799827098846
      ],
      "type": "VEC3"
    },
    {
      "bufferView": 2,
      "byteOffset": 372456,
      "componentType": 5126,
      "count": 168,
      "max": [
        0.9550053477287292,
        0.5548674464225769,
        0.8386041522026062
      ],
      "min": [
        -0.9604347348213196,
        -0.6026164293289185,
        0.27844807505607605
      ],
      "type": "VEC3"
    },
    {
      "bufferView": 1,
      "byteOffset": 123480,
      "componentType": 5126,
      "count": 168,
      "max": [
        0.9959499835968018,
        0.9958999752998352
      ],
      "min": [
        0.5034000277519226,
        0.5483999848365784
      ],
      "type": "VEC2"
    },
    {
      "bufferView": 0,
      "byteOffset": 161724,
      "componentType": 5125,
      "count": 522,
      "type": "SCALAR"
    },
    {
      "bufferView": 2,
      "byteOffset": 374472,
      "componentType": 5126,
      "count": 744,
      "max": [
        0.4086810052394867,
        1.2283920049667358,
        0.053874000906944275
      ],
      "min": [
        -0.4086810052394867,
        -1.25,
        -0.3112959861755371
      ],
      "type": "VEC3"
    },
    {
      "bufferView": 2,
      "byteOffset": 383400,
      "componentType": 5126,
      "count": 744,
      "max": [
        1.0,
        0.9969075918197632,
        0.9985615015029907
      ],
      "min": [
        -1.0,
        -1.0,
        -0.9985615015029907
      ],
      "type": "VEC3"
    },
    {
      "bufferView": 1,
      "byteOffset": 124824,
      "componentType": 5126,
      "count": 744,
      "max": [
        0.996749997138977,
        0.996999979019165
      ],
      "min": [
        0.503600001335144,
        0.503600001335144
      ],
      "type": "VEC2"
    },
    {
      "bufferView": 0,
      "byteOffset": 163812,
      "componentType": 5125,
      "count": 1836,
      "type": "SCALAR"
    },
    {
      "bufferView": 2,
      "byteOffset": 392328,
      "componentType": 5126,
      "count": 56,
      "max": [
        0.3659929931163788,
        -1.1606299877166748,
        0.02439800091087818
      ],
      "min": [
        -0.3659929931163788,
        -1.1719039678573608,
        -0.0695519968867302
      ],
      "type": "VEC3"
    },
    {
      "bufferView": 2,
      "byteOffset": 393000,
      "componentType": 5126,
      "count": 56,
      "max": [
        0.3184092044830322,
        -0.9364787340164185,
        0.28770822286605835
      ],
      "min": [
        -0.3184092044830322,
        -0.9878200888633728,
        -0.3504580557346344
      ],
      "type": "VEC3"
    },
    {
      "bufferView": 1,
      "byteOffset": 130776,
      "componentType": 5126,
      "count": 56,
      "max": [
        0.8042500019073486,
        0.996150016784668
      ],
      "min": [
        0.6769999861717224,
        0.8722500205039978
      ],
      "type": "VEC2"
    },
    {
      "bufferView": 0,
      "byteOffset": 171156,
      "componentType": 5125,
      "count": 240,
      "type": "SCALAR"
    },
    {
      "bufferView": 2,
      "byteOffset": 393672,
      "componentType": 5126,
      "count": 1377,
      "max": [
        0.3547770082950592,
        0.7454900145530701,
        0.3368389904499054
      ],
      "min": [
        -0.36517098546028137,
        -0.5055670142173767,
        -0.21628999710083008
      ],
      "type": "VEC3"
    },
    {
      "bufferView": 2,
      "byteOffset": 410196,
      "componentType": 5126,
      "count": 1377,
      "max": [
        0.9998792409896851,
        0.999451756477356,
        0.9999710321426392
      ],
      "min": [
        -0.9999231696128845,
        -0.9992321729660034,
        -0.999856173992157
      ],
      "type": "VEC3"
    },
    {
      "bufferView": 1,
      "byteOffset": 131224,
      "componentType": 5126,
      "count": 1377,
      "max": [
        0.9957000017166138,
        0.9990000128746033
      ],
      "min": [
        0.5019000172615051,
        0.5013999938964844
      ],
      "type": "VEC2"
    },
    {
      "bufferView": 0,
      "byteOffset": 172116,
      "componentType": 5125,
      "count": 3360,
      "type": "SCALAR"
    },
    {
      "bufferView": 2,
      "byteOffset": 426720,
      "componentType": 5126,
      "count": 48,
      "max": [
        0.03593600168824196,
        -0.054138001054525375,
        0.3554530143737793
      ],
      "min": [
        -0.31895899772644043,
        -0.23634199798107147,
        0.21570299565792084
      ],
      "type": "VEC3"
    },
    {
      "bufferView": 2,
      "byteOffset": 427296,
      "componentType": 5126,
      "count": 48,
      "max": [
        0.9924182295799255,
        0.22584612667560577,
        0.906564474105835
      ],
      "min": [
        -0.9304925799369812,
        -0.9743792414665222,
        -0.9068911671638489
      ],
      "type": "VEC3"
    },
    {
      "bufferView": 1,
      "byteOffset": 142240,
      "componentType": 5126,
      "count": 48,
      "max": [
        0.999750018119812,
        0.999750018119812
      ],
      "min": [
        0.500249981880188,
        0.500249981880188
      ],
      "type": "VEC2"
    },
    {
      "bufferView": 0,
      "byteOffset": 185556,
      "componentType": 5125,
      "count": 72,
      "type": "SCALAR"
    }
  ],
  "asset": {
    "extras": {
      "author": "DigimonLTD (https://sketchfab.com/digimonbtc)",
      "license": "CC-BY-4.0 (http://creativecommons.org/licenses/by/4.0/)",
      "source": "https://sketchfab.com/3d-models/colin-mcrae-rally-ford-0b74f0bb61c4401799918d1a74538835",
      "title": "Colin McRae Rally Ford"
    },
    "generator": "Sketchfab-12.29.0",
    "version": "2.0"
  },
  "bufferViews": [
    {
      "buffer": 0,
      "byteLength": 185844,
      "name": "floatBufferViews",
      "target": 34963
    },
    {
      "buffer": 0,
      "byteLength": 142624,
      "byteOffset": 185844,
      "byteStride": 8,
      "name": "floatBufferViews",
      "target": 34962
    },
    {
      "buffer": 0,
      "byteLength": 427872,
      "byteOffset": 328468,
      "byteStride": 12,
      "name": "floatBufferViews",
      "target": 34962
    }
  ],
  "buffers": [
    {
      "byteLength": 756340,
      "uri": "scene.bin"
    }
  ],
  "images": [
    {
      "uri": "textures/Base_baseColor.jpeg"
    },
    {
      "uri": "textures/Caras_baseColor.jpeg"
    },
    {
      "uri": "textures/Guantes_baseColor.jpeg"
    },
    {
      "uri": "textures/Interior_baseColor.jpeg"
    },
    {
      "uri": "textures/Limpia_Cristales_baseColor.jpeg"
    },
    {
      "uri": "textures/Luces_Frenos_baseColor.jpeg"
    },
    {
      "uri": "textures/Pilotos_baseColor.jpeg"
    }
  ],
  "materials": [
    {
      "doubleSided": true,
      "name": "Base",
      "pbrMetallicRoughness": {
        "baseColorTexture": {
          "index": 0
        },
        "metallicFactor": 0.0
      }
    },
    {
      "doubleSided": true,
      "name": "Caras",
      "pbrMetallicRoughness": {
        "baseColorTexture": {
          "index": 1
        },
        "metallicFactor": 0.0
      }
    },
    {
      "doubleSided": true,
      "name": "Guantes",
      "pbrMetallicRoughness": {
        "baseColorTexture": {
          "index": 2
        },
        "metallicFactor": 0.0
      }
    },
    {
      "doubleSided": true,
      "name": "Interior",
      "pbrMetallicRoughness": {
        "baseColorTexture": {
          "index": 3
        },
        "metallicFactor": 0.0
      }
    },
    {
      "doubleSided": true,
      "name": "Limpia_Cristales",
      "pbrMetallicRoughness": {
        "baseColorTexture": {
          "index": 4
        },
        "metallicFactor": 0.0
      }
    },
    {
      "alphaMode": "BLEND",
      "doubleSided": true,
      "name": "Limpia_Cristales_1",
      "pbrMetallicRoughness": {
        "baseColorFactor": [
          1.0,
          1.0,
          1.0,
          0.5
        ],
        "baseColorTexture": {
          "index": 4
        },
        "metallicFactor": 0.0
      }
    },
    {
      "doubleSided": true,
      "name": "Luces_Frenos",
      "pbrMetallicRoughness": {
        "baseColorTexture": {
          "index": 5
        },
        "metallicFactor": 0.0
      }
    },
    {
      "doubleSided": true,
      "name": "Luces_Frenos_1",
      "pbrMetallicRoughness": {
        "baseColorTexture": {
          "index": 5
        },
        "metallicFactor": 0.0
      }
    },
    {
      "doubleSided": true,
      "name": "Pilotos",
      "pbrMetallicRoughness": {
        "baseColorTexture": {
          "index": 6
        },
        "metallicFactor": 0.0
      }
    },
    {
      "doubleSided": true,
      "name": "Transparencia",
      "pbrMetallicRoughness": {
        "baseColorFactor": [
          0.698039,
          0.698039,
          0.698039,
          1.0
        ],
        "metallicFactor": 0.0
      }
    }
  ],
  "meshes": [
    {
      "name": "Object_0",
      "primitives": [
        {
          "attributes": {
            "NORMAL": 1,
            "POSITION": 0,
            "TEXCOORD_0": 2
          },
          "indices": 3,
          "material": 0,
          "mode": 4
        }
      ]
    },
    {
      "name": "Object_1",
      "primitives": [
        {
          "attributes": {
            "NORMAL": 5,
            "POSITION": 4,
            "TEXCOORD_0": 6
          },
          "indices": 7,
          "material": 1,
          "mode": 4
        }
      ]
    },
    {
      "name": "Object_2",
      "primitives": [
        {
          "attributes": {
            "NORMAL": 9,
            "POSITION": 8,
            "TEXCOORD_0": 10
          },
          "indices": 11,
          "material": 2,
          "mode": 4
        }
      ]
    },
    {
      "name": "Object_3",
      "primitives": [
        {
          "attributes": {
            "NORMAL": 13,
            "POSITION": 12,
            "TEXCOORD_0": 14
          },
          "indices": 15,
          "material": 3,
          "mode": 4
        }
      ]
    },
    {
      "name": "Object_4",
      "primitives": [
        {
          "attributes": {
            "NORMAL": 17,
            "POSITION": 16,
            "TEXCOORD_0": 18
          },
          "indices": 19,
          "material": 4,
          "mode": 4
        }
      ]
    },
    {
      "name": "Object_5",
      "primitives": [
        {
          "attributes": {
            "NORMAL": 21,
            "POSITION": 20,
            "TEXCOORD_0": 22
          },
          "indices": 23,
          "material": 5,
          "mode": 4
        }
      ]
    },
    {
      "name": "Object_6",
      "primitives": [
        {
          "attributes": {
            "NORMAL": 25,
            "POSITION": 24,
            "TEXCOORD_0": 26
          },
          "indices": 27,
          "material": 6,
          "mode": 4
        }
      ]
    },
    {
      "name": "Object_7",
      "primitives": [
        {
          "attributes": {
            "NORMAL": 29,
            "POSITION": 28,
            "TEXCOORD_0": 30
          },
          "indices": 31,
          "material": 7,
          "mode": 4
        }
      ]
    },
    {
      "name": "Object_8",
      "primitives": [
        {
          "attributes": {
            "NORMAL": 33,
            "POSITION": 32,
            "TEXCOORD_0": 34
          },
          "indices": 35,
          "material": 8,
          "mode": 4
        }
      ]
    },
    {
      "name": "Object_9",
      "primitives": [
        {
          "attributes": {
            "NORMAL": 37,
            "POSITION": 36,
            "TEXCOORD_0": 38
          },
          "indices": 39,
          "material": 9,
          "mode": 4
        }
      ]
    }
  ],
  "nodes": [
    {
      "children": [
        1
      ],
      "matrix": [
        1.0,
        0.0,
        0.0,
        0.0,
        0.0,
        2.220446049250313e-16,
        -1.0,
        0.0,
        0.0,
        1.0,
        2.220446049250313e-16,
        0.0,
        0.0,
        0.0,
        0.0,
        1.0
      ],
      "name": "Sketchfab_model"
    },
    {
      "children": [
        2,
        3,
        4,
        5,
        6,
        7,
        8,
        9,
        10,
        11
      ],
      "name": "model.obj.cleaner.materialmerger.gles"
    },
    {
      "mesh": 0,
      "name": "Object_2"
    },
    {
      "mesh": 1,
      "name": "Object_3"
    },
    {
      "mesh": 2,
      "name": "Object_4"
    },
    {
      "mesh": 3,
      "name": "Object_5"
    },
    {
      "mesh": 4,
      "name": "Object_6"
    },
    {
      "mesh": 5,
      "name": "Object_7"
    },
    {
      "mesh": 6,
      "name": "Object_8"
    },
    {
      "mesh": 7,
      "name": "Object_9"
    },
    {
      "mesh": 8,
      "name": "Object_10"
    },
    {
      "mesh": 9,
      "name": "Object_11"
    }
  ],
  "samplers": [
    {
      "magFilter": 9729,
      "minFilter": 9987,
      "wrapS": 10497,
      "wrapT": 10497
    }
  ],
  "scene": 0,
  "scenes": [
    {
      "name": "Sketchfab_Scene",
      "nodes": [
        0
      ]
    }
  ],
  "textures": [
    {
      "sampler": 0,
      "source": 0
    },
    {
      "sampler": 0,
      "source": 1
    },
    {
      "sampler": 0,
      "source": 2
    },
    {
      "sampler": 0,
      "source": 3
    },
    {
      "sampler": 0,
      "source": 4
    },
    {
      "sampler": 0,
      "source": 5
    },
    {
      "sampler": 0,
      "source": 6
    }
  ]
}
